<svg width="290" height="92" viewBox="0 0 290 92" fill="none" xmlns="http://www.w3.org/2000/svg">
<g clip-path="url(#clip0_1_2)">
<path d="M74.5798 17.5396L52.699 55.0783H131.596L98.6172 0H80.4357L104.473 40.3088H79.204L92.1476 18.1524L74.5798 17.5396Z" fill="#1E1E1E"/>
<path d="M134.984 55.0783H154.091V15.9993H187.377L190.458 19.6927V55.0783H206.79V10.4633L198.47 1.22973H134.984V55.0783Z" fill="#1E1E1E"/>
<path d="M181.827 18.7693H164.878V55.0783H181.827V18.7693Z" fill="#1E1E1E"/>
<path d="M0 17.5396V55.0783H43.4548L52.699 44.615V10.4633L42.8368 0H0V13.2292L39.4486 13.5398L40.0623 41.5385H15.1001L15.4112 17.229L0 17.5396Z" fill="#1E1E1E"/>
<path d="M210.182 55.0783H290L256.718 1.22973H238.844L262.574 39.0748H237.919L250.091 17.229H233.295L210.182 55.0783Z" fill="#1E1E1E"/>
<path d="M42.9903 91.2298H26.3516V66.9246H42.9903V71.3839L31.4361 71.5371L31.5896 77.2305L41.7586 77.3837V81.0771H30.9716V87.3832L42.9903 87.6938V91.2298Z" fill="#1E1E1E"/>
<path d="M48.8462 91.2298V66.9246H53.9307L64.7177 83.3834V66.9246H69.3419V91.2298H65.6425L54.2418 74.4604L54.3952 91.2298H48.8462Z" fill="#1E1E1E"/>
<path d="M74.273 66.9246L82.9034 81.6941V91.2298H88.7551L87.9879 81.8473L96.9252 66.9246H91.6873L85.597 77.8475L80.1289 66.9246H74.273Z" fill="#1E1E1E"/>
<path d="M1.2317 91.2298V66.3076H6.78076V78.0006L16.4895 66.3076H22.3411L12.4832 78.7708L21.4206 91.2298H16.1784L8.93731 81.2303L6.4739 84.3067V91.2298H1.2317Z" fill="#1E1E1E"/>
<path d="M112.17 66.9203H106.783L97.833 91.2213H102.619L104.929 85.2386H113.56L116.036 91.2213H120.967L112.17 66.9203ZM105.867 81.5452L109.549 72.303L112.336 81.5452H105.867Z" fill="#1E1E1E"/>
<path d="M136.063 91.2298L136.681 66.9203L140.84 66.9246L151.934 83.3834V66.9246H156.712V91.2298H153.012L141.458 75.2306L141.305 91.2298H136.063Z" fill="#1E1E1E"/>
<path d="M176.121 66.9203H170.896L161.945 91.2213H167.03L169.046 85.2386L177.826 85.3875L179.986 91.2213H184.751L176.121 66.9203ZM170.128 81.5452L173.35 72.303L176.598 81.5452H170.128Z" fill="#1E1E1E"/>
<path d="M194.622 66.9203H190.151V91.2298H194.622V66.9203Z" fill="#1E1E1E"/>
<path d="M214.956 81.5452C216.267 80.9932 217.434 80.1473 218.365 79.0729C221.903 68.2947 212.04 66.9203 212.04 66.9203H201.56V91.2213H206.18V82.6217L210.796 82.3111L215.275 91.2213H220.057L214.956 81.5452ZM212.334 78.3028L206.01 79.0729V70.7627H210.796C210.796 70.7627 214.333 70.4521 214.632 74.9199C214.644 74.9199 214.956 77.0773 212.334 78.3028Z" fill="#1E1E1E"/>
<path d="M236.223 70.3967C240.225 70.3967 243.468 74.3072 243.468 79.1283C243.468 83.9493 240.229 87.8598 236.223 87.8598C232.217 87.8598 228.977 83.9493 228.977 79.1283C228.977 74.3072 232.221 70.3967 236.223 70.3967ZM236.223 66.2437C229.936 66.2437 224.822 72.0222 224.822 79.1283C224.822 86.2343 229.936 92.0128 236.223 92.0128C242.509 92.0128 247.628 86.2343 247.628 79.1283C247.628 72.0222 242.513 66.2437 236.223 66.2437Z" fill="#1E1E1E"/>
<path d="M266.653 78.5325C269.666 78.1581 270.208 76.456 270.208 76.456C273.617 67.6905 264.667 66.9203 264.667 66.9203H253.398V91.2213H262.114C270.271 92.0723 271.665 87.464 271.665 87.464C273.975 79.7793 266.653 78.5325 266.653 78.5325ZM258.099 70.7627H263.435C263.435 70.7627 266.287 71.5329 266.287 74.5455C266.287 77.5581 262.813 77.3879 262.813 77.3879H258.125L258.099 70.7627ZM263.572 87.3577H258.099V80.4644H263.883C263.883 80.4644 267.19 81.3792 266.866 84.4727C266.542 87.5662 263.572 87.3789 263.572 87.3789V87.3577Z" fill="#1E1E1E"/>
<path d="M282.606 66.9203H277.905V91.2213H282.606V66.9203Z" fill="#1E1E1E"/>
</g>
<defs>
<clipPath id="clip0_1_2">
<rect width="290" height="92" fill="white"/>
</clipPath>
</defs>
</svg>
