<svg width="99" height="101" viewBox="0 0 99 101" fill="#fff" xmlns="http://www.w3.org/2000/svg">
<g clip-path="url(#clip0_6_2)">
<path d="M47.48 100.65H56.48C56.48 100.65 48.92 85.54 47.48 68.94C47.48 68.94 54.59 65.24 58 50.72C54.9904 55.4794 51.1212 59.6369 46.59 62.98C46.2488 53.7377 46.9973 44.4873 48.82 35.42C48.82 35.42 32.07 57.68 47.48 100.65Z" fill="#fff"/>
<path d="M61.4799 54.42C61.4799 54.42 65.48 64.35 77.33 61.68C77.33 61.68 81.4099 61.46 88.6699 55.31C88.6699 55.31 92.37 52.31 96.22 54.42C96.22 54.42 91.6299 41.24 74.2999 42.13C74.2999 42.13 62.8899 40.72 60.6699 52.5C66.3808 52.7415 72.0983 52.2168 77.6699 50.94C86.0399 48.87 91.6 52.11 91.6 52.11C91.6 52.11 82.11 50.57 76.41 53.24C70.71 55.91 61.4799 54.42 61.4799 54.42Z" fill="#fff"/>
<path d="M81.26 39.79C82.3882 41.0562 83.9378 41.8697 85.6207 42.0794C87.3037 42.2891 89.0055 41.8807 90.41 40.93C90.41 40.93 92.4099 40.17 95.1099 35.93C95.51 35.3458 96.063 34.8828 96.7086 34.5917C97.3541 34.3007 98.0673 34.1929 98.77 34.28C98.77 34.28 94.36 28.37 85.77 31.58C85.77 31.58 79.7699 32.68 80.5499 38.97C83.4578 38.1806 86.2486 37.0105 88.85 35.49C90.971 34.0871 93.5315 33.5074 96.0499 33.86C96.0499 33.86 91.05 34.59 88.58 36.86C86.11 39.13 81.26 39.79 81.26 39.79Z" fill="#fff"/>
<path d="M60.96 18.83C62.6523 18.9171 64.3187 18.3875 65.6502 17.3393C66.9816 16.291 67.8876 14.7954 68.2 13.13C68.2 13.13 69.08 11.13 67.94 6.25997C67.8032 5.56358 67.8616 4.84293 68.1087 4.17763C68.3557 3.51233 68.7819 2.92829 69.34 2.48998C69.34 2.48998 62.03 1.48995 58.27 9.83996C58.27 9.83996 54.86 14.84 59.86 18.75C61.3466 16.1285 62.4766 13.3204 63.22 10.4C63.7129 7.90468 65.0996 5.6751 67.12 4.12996C67.12 4.12996 64.12 8.21997 64 11.54C63.88 14.86 60.96 18.83 60.96 18.83Z" fill="#fff"/>
<path d="M35.6399 17.9799C36.6341 16.6064 37.096 14.9186 36.9396 13.2303C36.7833 11.5419 36.0195 9.96763 34.79 8.79996C34.79 8.79996 33.6199 6.98994 28.8899 5.27994C28.2336 5.01415 27.6627 4.57338 27.2396 4.00562C26.8164 3.43785 26.5571 2.76486 26.4899 2.05994C26.4899 2.05994 21.6599 7.62994 26.6299 15.3399C26.6299 15.3399 28.99 20.94 34.97 18.86C33.5811 16.1824 31.8389 13.7036 29.79 11.49C27.9686 9.71423 26.856 7.33614 26.66 4.79996C26.66 4.79996 28.4499 9.54996 31.1799 11.46C33.9099 13.37 35.6399 17.9799 35.6399 17.9799Z" fill="#fff"/>
<path d="M17.95 38.82C17.5987 37.1606 16.6568 35.6851 15.2994 34.668C13.9419 33.6508 12.2613 33.1612 10.57 33.29C10.57 33.29 8.44001 32.95 4.01001 35.29C3.3721 35.5978 2.66211 35.7251 1.957 35.6581C1.25189 35.5911 0.578556 35.3324 0.0100098 34.91C0.0100098 34.91 0.910009 42.23 10.01 43.71C10.01 43.71 15.75 45.71 18.21 39.88C15.2953 39.1199 12.292 38.7533 9.28003 38.79C6.73944 38.9509 4.22693 38.1832 2.21002 36.63C2.21002 36.63 6.94002 38.48 10.21 37.74C13.48 37 17.95 38.82 17.95 38.82Z" fill="#fff"/>
<path d="M62.51 38.3899C62.51 38.3899 71.21 42.9 77.86 33.99C77.86 33.99 80.56 31.3999 81.94 22.7999C81.94 22.7999 82.75 18.53 86.67 17.68C86.67 17.68 75.67 11.2499 64.1 22.1999C64.1 22.1999 55.32 28.0199 60.8 37.5299C64.9026 34.2975 68.5579 30.5346 71.67 26.3399C76.25 19.9099 82.04 18.8499 82.04 18.8499C82.04 18.8499 74.54 23.4399 72.16 28.6899C69.78 33.9399 62.51 38.3899 62.51 38.3899Z" fill="#fff"/>
<path d="M49.49 31.79C49.49 31.79 58.43 27.79 55.57 17.03C55.57 17.03 55.22 13.31 49.34 6.88C49.34 6.88 46.5 3.6 48.26 0C48.26 0 36.36 4.67 37.78 20.5C37.78 20.5 36.9 30.99 47.78 32.6C47.808 27.3804 47.1353 22.1807 45.78 17.14C43.59 9.55001 46.36 4.35001 46.36 4.35001C46.36 4.35001 45.29 13.08 47.93 18.21C50.57 23.34 49.49 31.79 49.49 31.79Z" fill="#fff"/>
<path d="M38.95 38.69C38.95 38.69 42.37 29.5 32.7 24C32.7 24 29.81 21.63 21.1 21.32C21.1 21.32 16.77 21.04 15.44 17.26C15.44 17.26 10.44 29.01 22.7 39.11C22.7 39.11 29.55 47.11 38.32 40.5C34.6101 36.8214 30.4267 33.6535 25.88 31.08C18.88 27.32 17.17 21.7 17.17 21.7C17.17 21.7 22.64 28.59 28.17 30.31C33.7 32.03 38.95 38.69 38.95 38.69Z" fill="#fff"/>
<path d="M34.5901 54.74C34.5901 54.74 31.8801 45.32 20.8401 46.63C20.8401 46.63 17.1001 46.45 9.91006 51.36C9.91006 51.36 6.26003 53.71 2.91003 51.46C2.91003 51.46 5.85006 63.9 21.7201 64.73C21.7201 64.73 31.98 67.09 35.11 56.57C29.9417 55.8119 24.6953 55.748 19.51 56.38C11.69 57.48 6.94003 54.01 6.94003 54.01C6.94003 54.01 15.43 56.3 20.88 54.41C26.33 52.52 34.5901 54.74 34.5901 54.74Z" fill="#fff"/>
</g>
<defs>
<clipPath id="clip0_6_2">
<rect width="98.77" height="100.65" fill="white"/>
</clipPath>
</defs>
</svg>
